<?xml version="1.0" encoding="utf-8" ?><svg xmlns="http://www.w3.org/2000/svg" xmlns:xlink="http://www.w3.org/1999/xlink" width="1024" height="1024" viewBox="0 0 1024 1024" xmlns:c2pa="http://c2pa.org/manifest"><metadata><c2pa:manifest>AAAgRWp1bWIAAAAeanVtZGMycGEAEQAQgAAAqgA4m3EDYzJwYQAAAAxBanVtYgAAAEdqdW1kYzJtYQARABCAAACqADibcQN1cm46YzJwYTplZGEyM2YwNC05OWMyLTQwYWYtYjkzMS1mZWVhMjc0MTlmNmQAAAAB4mp1bWIAAAApanVtZGMyYXMAEQAQgAAAqgA4m3EDYzJwYS5hc3NlcnRpb25zAAAAAO1qdW1iAAAAQWp1bWRjYm9yABEAEIAAAKoAOJtxE2MycGEuYWN0aW9ucy52MgAAAAAYYzJzaNoSHYrlruieB+/r5o8/byAAAACkY2JvcqFnYWN0aW9uc4GjZmFjdGlvbmxjMnBhLmNyZWF0ZWRxZGlnaXRhbFNvdXJjZVR5cGV4Rmh0dHA6Ly9jdi5pcHRjLm9yZy9uZXdzY29kZXMvZGlnaXRhbHNvdXJjZXR5cGUvdHJhaW5lZEFsZ29yaXRobWljTWVkaWFrZGVzY3JpcHRpb252Q3JlYXRlZCBieSBSZWNyYWZ0IEFJLgAAAMRqdW1iAAAAQGp1bWRjYm9yABEAEIAAAKoAOJtxE2MycGEuaGFzaC5kYXRhAAAAABhjMnNo8GbOVGsD/1ioYxKfEOHTCAAAAHxjYm9ypWpleGNsdXNpb25zgaJlc3RhcnQY22ZsZW5ndGgZEIxkbmFtZW5qdW1iZiBtYW5pZmVzdGNhbGdmc2hhMjU2ZGhhc2hYICHzPB1PmEh3V9FprJ7DPIWMEGc6fyBuTBhcse8Tru7eY3BhZEkAAAAAAAAAAAAAAAI0anVtYgAAACdqdW1kYzJjbAARABCAAACqADibcQNjMnBhLmNsYWltLnYyAAAAAgVjYm9ypmppbnN0YW5jZUlEeCx4bXA6aWlkOjdjNzEyN2UwLTI4YTQtNDZlNy05NGRhLTk4MmUwNzk4NDU4MXRjbGFpbV9nZW5lcmF0b3JfaW5mb6NkbmFtZWpyZWNyYWZ0LmFpZ3ZlcnNpb254KDgxY2U4MmUyYzVjM2NiZmJlOGM2ZmJlMTc5ZDVmOGQ5MWM0MDljZTF3b3JnLmNvbnRlbnRhdXRoLmMycGFfcnNmMC45MC43aXNpZ25hdHVyZXhNc2VsZiNqdW1iZj0vYzJwYS91cm46YzJwYTplZGEyM2YwNC05OWMyLTQwYWYtYjkzMS1mZWVhMjc0MTlmNmQvYzJwYS5zaWduYXR1cmVyY3JlYXRlZF9hc3NlcnRpb25zgqJjdXJseCpzZWxmI2p1bWJmPWMycGEuYXNzZXJ0aW9ucy9jMnBhLmFjdGlvbnMudjJkaGFzaFggpbEVHFaWUpgXDdNgIWy+dNrGqRJMyZEGPUeMwkXLHhuiY3VybHgpc2VsZiNqdW1iZj1jMnBhLmFzc2VydGlvbnMvYzJwYS5oYXNoLmRhdGFkaGFzaFggHrLju/VjatS6Ylsgz1zWIDWrQ8GvL8O0Y0Gau09GutxoZGM6dGl0bGV4GlJlY3JhZnQgQUkgR2VuZXJhdGVkIEltYWdlY2FsZ2ZzaGEyNTYAAAfcanVtYgAAAChqdW1kYzJjcwARABCAAACqADibcQNjMnBhLnNpZ25hdHVyZQAAAAesY2JvctKEWQOwogEmGCGCWQHnMIIB4zCCAYmgAwIBAgIJALfeWmNDUW56MAoGCCqGSM49BAMCMEAxHzAdBgNVBAMMFlJlY3JhZnQgU3RhZ2luZyBEZXYgQ0ExEDAOBgNVBAoMB1JlY3JhZnQxCzAJBgNVBAYTAlVTMB4XDTI2MDYxMjE5NDM1MFoXDTI3MDYxMjE5NDM1MFowNzELMAkGA1UEBhMCVVMxEzARBgNVBAoTClJlY3JhZnQgQUkxEzARBgNVBAMTCnJlY3JhZnQuYWkwWTATBgcqhkjOPQIBBggqhkjOPQMBBwNCAARKaTVbACsg/DeG3LeOxYdID/VA6EFG73E6Oknb+KIiCFJygRUz4ueN2z/t2qYb6CIUvS8RvgOiiClfoqsYtw81o3UwczAMBgNVHRMBAf8EAjAAMA4GA1UdDwEB/wQEAwIGwDATBgNVHSUEDDAKBggrBgEFBQcDBDAdBgNVHQ4EFgQULzHpBen96SL1y4IPHa8MkMshXf0wHwYDVR0jBBgwFoAUAgsqOBrKqpdK//m/kxZo7ZR4ebcwCgYIKoZIzj0EAwIDSAAwRQIgU8hKW0aXvvk8SQgVFNkax69Ym9ae8GsT2RZTQw+B51ACIQC0D4BkEoRD4N0r2ZRkNy0HZaW3WICy/QZGN95ilF4yzFkBvTCCAbkwggFfoAMCAQICCQCc+Wg7T6ATbzAKBggqhkjOPQQDAjBAMR8wHQYDVQQDDBZSZWNyYWZ0IFN0YWdpbmcgRGV2IENBMRAwDgYDVQQKDAdSZWNyYWZ0MQswCQYDVQQGEwJVUzAeFw0yNjA2MTIxOTQwMTZaFw0yODA2MTExOTQwMTZaMEAxHzAdBgNVBAMMFlJlY3JhZnQgU3RhZ2luZyBEZXYgQ0ExEDAOBgNVBAoMB1JlY3JhZnQxCzAJBgNVBAYTAlVTMFkwEwYHKoZIzj0CAQYIKoZIzj0DAQcDQgAEQ9IQBlcVbKaKPYrQSfOhL/00s7xUDC7RinIuLO/I1k99y9yh6oWF9kPxaP+tx1v1PeOL3yrVquJ730H0ZGiDyqNCMEAwDwYDVR0TAQH/BAUwAwEB/zAOBgNVHQ8BAf8EBAMCAYYwHQYDVR0OBBYEFAILKjgayqqXSv/5v5MWaO2UeHm3MAoGCCqGSM49BAMCA0gAMEUCIFQwNImLlYDeQhjgF+ZiqTbgcuzSqmOJw3Q2lQ/hu83FAiEA9O8cLm/xfoVLqB4jtdbuHzi3WL+p2RN+DRGkwpYswVuhY3BhZFkDpAAAAAAAAAAAAAAAAAAAAAAAAAAAAAAAAAAAAAAAAAAAAAAAAAAAAAAAAAAAAAAAAAAAAAAAAAAAAAAAAAAAAAAAAAAAAAAAAAAAAAAAAAAAAAAAAAAAAAAAAAAAAAAAAAAAAAAAAAAAAAAAAAAAAAAAAAAAAAAAAAAAAAAAAAAAAAAAAAAAAAAAAAAAAAAAAAAAAAAAAAAAAAAAAAAAAAAAAAAAAAAAAAAAAAAAAAAAAAAAAAAAAAAAAAAAAAAAAAAAAAAAAAAAAAAAAAAAAAAAAAAAAAAAAAAAAAAAAAAAAAAAAAAAAAAAAAAAAAAAAAAAAAAAAAAAAAAAAAAAAAAAAAAAAAAAAAAAAAAAAAAAAAAAAAAAAAAAAAAAAAAAAAAAAAAAAAAAAAAAAAAAAAAAAAAAAAAAAAAAAAAAAAAAAAAAAAAAAAAAAAAAAAAAAAAAAAAAAAAAAAAAAAAAAAAAAAAAAAAAAAAAAAAAAAAAAAAAAAAAAAAAAAAAAAAAAAAAAAAAAAAAAAAAAAAAAAAAAAAAAAAAAAAAAAAAAAAAAAAAAAAAAAAAAAAAAAAAAAAAAAAAAAAAAAAAAAAAAAAAAAAAAAAAAAAAAAAAAAAAAAAAAAAAAAAAAAAAAAAAAAAAAAAAAAAAAAAAAAAAAAAAAAAAAAAAAAAAAAAAAAAAAAAAAAAAAAAAAAAAAAAAAAAAAAAAAAAAAAAAAAAAAAAAAAAAAAAAAAAAAAAAAAAAAAAAAAAAAAAAAAAAAAAAAAAAAAAAAAAAAAAAAAAAAAAAAAAAAAAAAAAAAAAAAAAAAAAAAAAAAAAAAAAAAAAAAAAAAAAAAAAAAAAAAAAAAAAAAAAAAAAAAAAAAAAAAAAAAAAAAAAAAAAAAAAAAAAAAAAAAAAAAAAAAAAAAAAAAAAAAAAAAAAAAAAAAAAAAAAAAAAAAAAAAAAAAAAAAAAAAAAAAAAAAAAAAAAAAAAAAAAAAAAAAAAAAAAAAAAAAAAAAAAAAAAAAAAAAAAAAAAAAAAAAAAAAAAAAAAAAAAAAAAAAAAAAAAAAAAAAAAAAAAAAAAAAAAAAAAAAAAAAAAAAAAAAAAAAAAAAAAAAAAAAAAAAAAAAAAAAAAAAAAAAAAAAAAAAAAAAAAAAAAAAAAAAAAAAAAAAAAAAAAAAAAAAAAAAAAAAAAAAAAAAAAAAAAAAAAAAAAAAAAAAAAAAAAAAAAAAAAAAAAAAAAAAAAAAAAAAAAA9lhAPpiPzcdxZ0792GMhaV5E9ddkC3SFNnBXrz6zvvYBx5KKa65i7LwoOSggtVL/I/fg0Cn9mo1TakriFNtSTBUNkgAAE95qdW1iAAAAR2p1bWRjMm1hABEAEIAAAKoAOJtxA3VybjpjMnBhOjIzNzZmN2I4LTI5ZTYtNDAyNS05ZjcwLThjOTM5ODk2N2E5ZgAAAAkdanVtYgAAAClqdW1kYzJhcwARABCAAACqADibcQNjMnBhLmFzc2VydGlvbnMAAAAGOmp1bWIAAABEanVtZGNib3IAEQAQgAAAqgA4m3ETYzJwYS5pbmdyZWRpZW50LnYzAAAAABhjMnNoZgAvXYtt5u1+mPu4i2aQrgAABe5jYm9yp2xyZWxhdGlvbnNoaXBocGFyZW50T2ZoZGM6dGl0bGVmc291cmNlaWRjOmZvcm1hdG1pbWFnZS9zdmcreG1scXZhbGlkYXRpb25SZXN1bHRzoW5hY3RpdmVNYW5pZmVzdKNnc3VjY2Vzc4WjZGNvZGV4HWNsYWltU2lnbmF0dXJlLmluc2lkZVZhbGlkaXR5Y3VybHhNc2VsZiNqdW1iZj0vYzJwYS91cm46YzJwYTplZGEyM2YwNC05OWMyLTQwYWYtYjkzMS1mZWVhMjc0MTlmNmQvYzJwYS5zaWduYXR1cmVrZXhwbGFuYXRpb251Y2xhaW0gc2lnbmF0dXJlIHZhbGlko2Rjb2RleBhjbGFpbVNpZ25hdHVyZS52YWxpZGF0ZWRjdXJseE1zZWxmI2p1bWJmPS9jMnBhL3VybjpjMnBhOmVkYTIzZjA0LTk5YzItNDBhZi1iOTMxLWZlZWEyNzQxOWY2ZC9jMnBhLnNpZ25hdHVyZWtleHBsYW5hdGlvbnVjbGFpbSBzaWduYXR1cmUgdmFsaWSjZGNvZGV4GWFzc2VydGlvbi5oYXNoZWRVUkkubWF0Y2hjdXJseF5zZWxmI2p1bWJmPS9jMnBhL3VybjpjMnBhOmVkYTIzZjA0LTk5YzItNDBhZi1iOTMxLWZlZWEyNzQxOWY2ZC9jMnBhLmFzc2VydGlvbnMvYzJwYS5hY3Rpb25zLnYya2V4cGxhbmF0aW9ueD5oYXNoZWQgdXJpIG1hdGNoZWQ6IHNlbGYjanVtYmY9YzJwYS5hc3NlcnRpb25zL2MycGEuYWN0aW9ucy52MqNkY29kZXgZYXNzZXJ0aW9uLmhhc2hlZFVSSS5tYXRjaGN1cmx4XXNlbGYjanVtYmY9L2MycGEvdXJuOmMycGE6ZWRhMjNmMDQtOTljMi00MGFmLWI5MzEtZmVlYTI3NDE5ZjZkL2MycGEuYXNzZXJ0aW9ucy9jMnBhLmhhc2guZGF0YWtleHBsYW5hdGlvbng9aGFzaGVkIHVyaSBtYXRjaGVkOiBzZWxmI2p1bWJmPWMycGEuYXNzZXJ0aW9ucy9jMnBhLmhhc2guZGF0YaNkY29kZXgYYXNzZXJ0aW9uLmRhdGFIYXNoLm1hdGNoY3VybHhdc2VsZiNqdW1iZj0vYzJwYS91cm46YzJwYTplZGEyM2YwNC05OWMyLTQwYWYtYjkzMS1mZWVhMjc0MTlmNmQvYzJwYS5hc3NlcnRpb25zL2MycGEuaGFzaC5kYXRha2V4cGxhbmF0aW9ub2RhdGEgaGFzaCB2YWxpZG1pbmZvcm1hdGlvbmFsgGdmYWlsdXJlgaNkY29kZXgbc2lnbmluZ0NyZWRlbnRpYWwudW50cnVzdGVkY3VybHhNc2VsZiNqdW1iZj0vYzJwYS91cm46YzJwYTplZGEyM2YwNC05OWMyLTQwYWYtYjkzMS1mZWVhMjc0MTlmNmQvYzJwYS5zaWduYXR1cmVrZXhwbGFuYXRpb254HXNpZ25pbmcgY2VydGlmaWNhdGUgdW50cnVzdGVkamluc3RhbmNlSUR4LHhtcDppaWQ6NmViOWFhM2MtYTNlYi00YWM0LThiYWQtMGEzYWQwNzgyOTEybmFjdGl2ZU1hbmlmZXN0o2N1cmx4PnNlbGYjanVtYmY9L2MycGEvdXJuOmMycGE6ZWRhMjNmMDQtOTljMi00MGFmLWI5MzEtZmVlYTI3NDE5ZjZkY2FsZ2ZzaGEyNTZkaGFzaFggvpp25WqZ/IWOlJ6/3kVxeneZaumGXW02Y4O8ip7FGEZuY2xhaW1TaWduYXR1cmWjY3VybHhNc2VsZiNqdW1iZj0vYzJwYS91cm46YzJwYTplZGEyM2YwNC05OWMyLTQwYWYtYjkzMS1mZWVhMjc0MTlmNmQvYzJwYS5zaWduYXR1cmVjYWxnZnNoYTI1NmRoYXNoWCCFaLIzzlEcxjSRVr8XTAZ0WLNFQCuxfX+kNgdW9kpH1gAAAe5qdW1iAAAAQWp1bWRjYm9yABEAEIAAAKoAOJtxE2MycGEuYWN0aW9ucy52MgAAAAAYYzJzaKPxntcp8jCavIAhY17TmBAAAAGlY2JvcqFnYWN0aW9uc4KiZmFjdGlvbmtjMnBhLm9wZW5lZGpwYXJhbWV0ZXJzoWtpbmdyZWRpZW50c4GiY3VybHgtc2VsZiNqdW1iZj1jMnBhLmFzc2VydGlvbnMvYzJwYS5pbmdyZWRpZW50LnYzZGhhc2hYIM8gbiwg9p9huj8b+o7OSg3+Y1nIqxYDjpCFC9P1M1E4pGZhY3Rpb25sYzJwYS5jcmVhdGVkanBhcmFtZXRlcnOha2luZ3JlZGllbnRzgaJjdXJseC1zZWxmI2p1bWJmPWMycGEuYXNzZXJ0aW9ucy9jMnBhLmluZ3JlZGllbnQudjNkaGFzaFggzyBuLCD2n2G6Pxv6js5KDf5jWcirFgOOkIUL0/UzUThxZGlnaXRhbFNvdXJjZVR5cGV4QWh0dHA6Ly9jdi5pcHRjLm9yZy9uZXdzY29kZXMvZGlnaXRhbHNvdXJjZXR5cGUvY29tcG9zaXRlU3ludGhldGlja2Rlc2NyaXB0aW9ueB9Db21wb3NlZCBpbiB0aGUgUmVjcmFmdCBlZGl0b3IuAAAAxGp1bWIAAABAanVtZGNib3IAEQAQgAAAqgA4m3ETYzJwYS5oYXNoLmRhdGEAAAAAGGMyc2g8/WVQaCd8vNRXZTSZgNeSAAAAfGNib3KlamV4Y2x1c2lvbnOBomVzdGFydBjsZmxlbmd0aBkrCGRuYW1lbmp1bWJmIG1hbmlmZXN0Y2FsZ2ZzaGEyNTZkaGFzaFggsC9HGfWI8pFuvwz/tkkGDZD9Bb5IYDu82CslaajztqZjcGFkSQAAAAAAAAAAAAAAApZqdW1iAAAAJ2p1bWRjMmNsABEAEIAAAKoAOJtxA2MycGEuY2xhaW0udjIAAAACZ2Nib3Knamluc3RhbmNlSUR4LHhtcDppaWQ6OGU1MDM5NzAtZjMxMC00OTdjLWIxYmUtYThjODViZjNhODg3dGNsYWltX2dlbmVyYXRvcl9pbmZvo2RuYW1lanJlY3JhZnQuYWlndmVyc2lvbngoODFjZTgyZTJjNWMzY2JmYmU4YzZmYmUxNzlkNWY4ZDkxYzQwOWNlMXdvcmcuY29udGVudGF1dGguYzJwYV9yc2YwLjkwLjdpc2lnbmF0dXJleE1zZWxmI2p1bWJmPS9jMnBhL3VybjpjMnBhOjIzNzZmN2I4LTI5ZTYtNDAyNS05ZjcwLThjOTM5ODk2N2E5Zi9jMnBhLnNpZ25hdHVyZXJjcmVhdGVkX2Fzc2VydGlvbnOComN1cmx4KnNlbGYjanVtYmY9YzJwYS5hc3NlcnRpb25zL2MycGEuYWN0aW9ucy52MmRoYXNoWCB7rbw4k9Xu+5wvrHKSQ/kSb83iRSkpPBbX+Tn1Kp5aNqJjdXJseClzZWxmI2p1bWJmPWMycGEuYXNzZXJ0aW9ucy9jMnBhLmhhc2guZGF0YWRoYXNoWCDzNNXyi+Snun/sdjZE4+tJko8y3v10MI5cUaJ5IvVPwHNnYXRoZXJlZF9hc3NlcnRpb25zgaJjdXJseC1zZWxmI2p1bWJmPWMycGEuYXNzZXJ0aW9ucy9jMnBhLmluZ3JlZGllbnQudjNkaGFzaFggzyBuLCD2n2G6Pxv6js5KDf5jWcirFgOOkIUL0/UzUThoZGM6dGl0bGVtUmVjcmFmdCBJbWFnZWNhbGdmc2hhMjU2AAAH3Gp1bWIAAAAoanVtZGMyY3MAEQAQgAAAqgA4m3EDYzJwYS5zaWduYXR1cmUAAAAHrGNib3LShFkDsKIBJhghglkB5zCCAeMwggGJoAMCAQICCQC33lpjQ1FuejAKBggqhkjOPQQDAjBAMR8wHQYDVQQDDBZSZWNyYWZ0IFN0YWdpbmcgRGV2IENBMRAwDgYDVQQKDAdSZWNyYWZ0MQswCQYDVQQGEwJVUzAeFw0yNjA2MTIxOTQzNTBaFw0yNzA2MTIxOTQzNTBaMDcxCzAJBgNVBAYTAlVTMRMwEQYDVQQKEwpSZWNyYWZ0IEFJMRMwEQYDVQQDEwpyZWNyYWZ0LmFpMFkwEwYHKoZIzj0CAQYIKoZIzj0DAQcDQgAESmk1WwArIPw3hty3jsWHSA/1QOhBRu9xOjpJ2/iiIghScoEVM+Lnjds/7dqmG+giFL0vEb4DoogpX6KrGLcPNaN1MHMwDAYDVR0TAQH/BAIwADAOBgNVHQ8BAf8EBAMCBsAwEwYDVR0lBAwwCgYIKwYBBQUHAwQwHQYDVR0OBBYEFC8x6QXp/eki9cuCDx2vDJDLIV39MB8GA1UdIwQYMBaAFAILKjgayqqXSv/5v5MWaO2UeHm3MAoGCCqGSM49BAMCA0gAMEUCIFPISltGl775PEkIFRTZGsevWJvWnvBrE9kWU0MPgedQAiEAtA+AZBKEQ+DdK9mUZDctB2Wlt1iAsv0GRjfeYpReMsxZAb0wggG5MIIBX6ADAgECAgkAnPloO0+gE28wCgYIKoZIzj0EAwIwQDEfMB0GA1UEAwwWUmVjcmFmdCBTdGFnaW5nIERldiBDQTEQMA4GA1UECgwHUmVjcmFmdDELMAkGA1UEBhMCVVMwHhcNMjYwNjEyMTk0MDE2WhcNMjgwNjExMTk0MDE2WjBAMR8wHQYDVQQDDBZSZWNyYWZ0IFN0YWdpbmcgRGV2IENBMRAwDgYDVQQKDAdSZWNyYWZ0MQswCQYDVQQGEwJVUzBZMBMGByqGSM49AgEGCCqGSM49AwEHA0IABEPSEAZXFWymij2K0EnzoS/9NLO8VAwu0YpyLizvyNZPfcvcoeqFhfZD8Wj/rcdb9T3ji98q1arie99B9GRog8qjQjBAMA8GA1UdEwEB/wQFMAMBAf8wDgYDVR0PAQH/BAQDAgGGMB0GA1UdDgQWBBQCCyo4Gsqql0r/+b+TFmjtlHh5tzAKBggqhkjOPQQDAgNIADBFAiBUMDSJi5WA3kIY4BfmYqk24HLs0qpjicN0NpUP4bvNxQIhAPTvHC5v8X6FS6geI7XW7h84t1i/qdkTfg0RpMKWLMFboWNwYWRZA6QAAAAAAAAAAAAAAAAAAAAAAAAAAAAAAAAAAAAAAAAAAAAAAAAAAAAAAAAAAAAAAAAAAAAAAAAAAAAAAAAAAAAAAAAAAAAAAAAAAAAAAAAAAAAAAAAAAAAAAAAAAAAAAAAAAAAAAAAAAAAAAAAAAAAAAAAAAAAAAAAAAAAAAAAAAAAAAAAAAAAAAAAAAAAAAAAAAAAAAAAAAAAAAAAAAAAAAAAAAAAAAAAAAAAAAAAAAAAAAAAAAAAAAAAAAAAAAAAAAAAAAAAAAAAAAAAAAAAAAAAAAAAAAAAAAAAAAAAAAAAAAAAAAAAAAAAAAAAAAAAAAAAAAAAAAAAAAAAAAAAAAAAAAAAAAAAAAAAAAAAAAAAAAAAAAAAAAAAAAAAAAAAAAAAAAAAAAAAAAAAAAAAAAAAAAAAAAAAAAAAAAAAAAAAAAAAAAAAAAAAAAAAAAAAAAAAAAAAAAAAAAAAAAAAAAAAAAAAAAAAAAAAAAAAAAAAAAAAAAAAAAAAAAAAAAAAAAAAAAAAAAAAAAAAAAAAAAAAAAAAAAAAAAAAAAAAAAAAAAAAAAAAAAAAAAAAAAAAAAAAAAAAAAAAAAAAAAAAAAAAAAAAAAAAAAAAAAAAAAAAAAAAAAAAAAAAAAAAAAAAAAAAAAAAAAAAAAAAAAAAAAAAAAAAAAAAAAAAAAAAAAAAAAAAAAAAAAAAAAAAAAAAAAAAAAAAAAAAAAAAAAAAAAAAAAAAAAAAAAAAAAAAAAAAAAAAAAAAAAAAAAAAAAAAAAAAAAAAAAAAAAAAAAAAAAAAAAAAAAAAAAAAAAAAAAAAAAAAAAAAAAAAAAAAAAAAAAAAAAAAAAAAAAAAAAAAAAAAAAAAAAAAAAAAAAAAAAAAAAAAAAAAAAAAAAAAAAAAAAAAAAAAAAAAAAAAAAAAAAAAAAAAAAAAAAAAAAAAAAAAAAAAAAAAAAAAAAAAAAAAAAAAAAAAAAAAAAAAAAAAAAAAAAAAAAAAAAAAAAAAAAAAAAAAAAAAAAAAAAAAAAAAAAAAAAAAAAAAAAAAAAAAAAAAAAAAAAAAAAAAAAAAAAAAAAAAAAAAAAAAAAAAAAAAAAAAAAAAAAAAAAAAAAAAAAAAAAAAAAAAAAAAAAAAAAAAAAAAAAAAAAAAAAAAAAAAAAAAAAAAAAAAAAAAAAAAAAAAAAAAAAAAAAAAAAAAAAAAAAAAAAAAAAAAAAAAAAAAAAAAAAAAAAAAAAAAAAAAAAAAAAPZYQNa0dT7GWJOVvDG/Ci20kt7YGKL1+QlBKNDj6M42yhJwdvRFZyj3XsyD/FR6wVu4q1GREmkw+Bn/8cqLn2S6oio=</c2pa:manifest></metadata><defs><linearGradient id="gradient_0" gradientUnits="userSpaceOnUse" x1="742.03308" y1="511.06693" x2="313.47131" y2="511.99362"><stop offset="0" stop-color="#FF1BA7"/><stop offset="1" stop-color="#8B15F1"/></linearGradient></defs><path fill="url(#gradient_0)" d="M332.593 240.644C353.786 227.125 379.161 227.471 403.238 227.467L450.673 227.483L514.53 227.334C541.151 227.123 569.192 226.11 595.249 231.873C644.67 242.899 687.711 273.056 714.948 315.743C738.427 352.667 747.644 401.372 738.117 444.12C728.343 490.022 700.55 530.079 660.973 555.302C655.736 558.599 647.413 563.373 641.57 565.662C648.32 577.459 663.005 597.59 671.186 609.238C686.667 631.243 701.989 653.361 717.15 675.588C723.92 685.494 736.348 700.989 740.153 711.882C757.057 760.276 712.097 807.63 662.267 794.038C651.377 791.023 641.517 785.088 633.754 776.877C628.749 771.619 622.971 762.669 618.751 756.484L595.815 722.746L533.143 633.028C522.095 617.291 512.53 602.613 500.829 586.774C493.261 586.503 485.15 586.46 477.564 586.631C454.862 587.142 431.791 586.113 409.129 586.703C407.784 637.027 410.5 687.953 408.627 738.292C408.534 740.773 407.632 745.068 407.016 747.534C398.287 782.517 360.6 804.007 325.903 792.845C313.507 789.23 300.95 779.17 293.527 768.76C287.709 760.61 283.869 751.215 282.313 741.322C281.029 732.909 281.411 716.92 281.403 707.956L281.34 655.405L281.366 595.983C281.349 582.042 280.804 566.763 282.754 553.115C285.952 530.725 302.981 502.876 321.564 489.816C324.803 487.009 329.109 484.15 332.854 482.054C334.033 480.678 340.443 477.754 342.392 476.745C369.551 462.685 400.916 465.512 430.773 465.539L523.67 465.494C535.793 465.462 558.149 466.098 569.122 463.621C579.196 461.25 588.43 456.171 595.826 448.932C617.938 426.862 618.804 391.388 596.382 369.329C588.518 361.636 578.653 356.304 567.909 353.938C558.541 351.952 549.455 352.394 539.928 352.413L509.822 352.476L409.241 352.518C408.705 365.54 410.205 379.574 407.707 392.354C401.329 424.99 365.959 449.756 333.03 442.759C314.299 440.226 298 427.349 288.88 411.013C278.871 393.085 280.25 374.003 280.337 354.203C280.387 342.604 279.791 330.171 280.965 318.655C281.592 312.441 282.817 306.303 284.623 300.324C291.92 275.727 310.006 252.832 332.593 240.644Z"/><path fill="#8111F6" d="M321.564 489.816C324.803 487.009 329.109 484.15 332.854 482.054C332.165 485.251 327.424 485.036 326.446 488.243C326.231 488.403 326.015 488.562 325.799 488.722L325.305 488.41C319.591 495.248 317.045 508.318 314.909 516.785C315.245 517.715 315.548 518.476 315.937 519.386L315.657 519.836C312.686 524.696 318.539 523.186 314.853 528.8C315.046 531.56 317.704 535.694 317.651 537.001C317.096 549.803 320.991 562.327 320.03 575.067C319.853 577.421 320.004 582.989 319.511 584.879C317.392 592.998 319.498 600.201 318.973 608.085L318.84 607.341C318.664 606.4 318.492 605.7 318.254 604.781C314.29 610.5 318.232 644.655 318.362 652.898C318.442 657.948 317.074 666.991 318.085 671.57C318.077 670.072 317.894 668.635 318.516 667.321L318.923 667.103C319.595 672.542 318.579 678.485 320.477 684.408C320.877 685.656 319.85 693.048 319.906 695.036C320.204 705.57 319.521 714.822 316.89 724.92C316.438 732.287 318.322 740.245 315.939 747.349C315.448 748.811 313.475 753.517 313.81 754.796C315.664 761.858 316.091 774.576 319.118 780.833C320.824 781.169 320.142 781.378 321.367 780.712C322.456 786.623 327.99 786.244 325.903 792.845C313.507 789.23 300.95 779.17 293.527 768.76C287.709 760.61 283.869 751.215 282.313 741.322C281.029 732.909 281.411 716.92 281.403 707.956L281.34 655.405L281.366 595.983C281.349 582.042 280.804 566.763 282.754 553.115C285.952 530.725 302.981 502.876 321.564 489.816Z"/><path fill="#8111F6" d="M332.593 240.644L333.683 241.218C333.262 241.965 329.068 246.424 328.419 246.792C325.368 253.927 326.929 256.241 321.797 262.12C316.178 268.557 318.867 290.204 318.757 298.93C318.723 301.572 321.543 310.958 321.75 316.011C322.079 324.026 320.833 328.318 320.387 336.021C320.327 337.066 322.163 343.986 322.574 345.487L323.097 345.874L323.839 344.607C324.642 348.338 324.96 352.885 326.27 356.574C326.527 357.297 324.413 361.478 324.565 362.584C325.613 370.222 325.651 377.549 325.396 385.248C325.263 389.282 325.677 393.001 325.068 397.123C324.847 397.359 322.777 399.347 322.781 399.199C322.699 402.018 322.731 406.051 322.74 408.824C322.746 410.62 323.306 414.813 322.865 415.692C322.04 417.334 321.894 417.024 321.813 419.194C324.328 425.618 327.696 429.152 327.141 436.983C327.038 438.447 334.165 438.193 333.03 442.759C314.299 440.226 298 427.349 288.88 411.013C278.871 393.085 280.25 374.003 280.337 354.203C280.387 342.604 279.791 330.171 280.965 318.655C281.592 312.441 282.817 306.303 284.623 300.324C291.92 275.727 310.006 252.832 332.593 240.644Z"/><path fill="#8111F6" d="M320 709.75C320.987 711.206 320.312 715.762 320.745 718.75C319.359 717.379 320 711.943 320 709.75Z"/><path fill="#8111F6" d="M318.5 660.75C319.886 662.119 319.204 664.358 318.968 666.2C318.215 664.303 318.497 662.889 318.5 660.75Z"/><path fill="#8111F6" d="M326.5 368.25C327.374 369.537 326.912 371.944 327.245 374.25C325.947 372.967 326.502 370.118 326.5 368.25Z"/><path fill="#8111F6" d="M318.5 722.25C319.355 723.508 318.999 725.043 319 726.75C318.145 725.492 318.501 723.957 318.5 722.25Z"/><path fill="#8111F6" d="M320.5 559.25C321.355 560.508 320.999 562.043 321 563.75C320.145 562.492 320.501 560.957 320.5 559.25Z"/><path fill="#8111F6" d="M320.096 589.19C320.696 589.669 320.56 589.991 320.604 590.741C319.743 590.375 319.991 590.18 320.096 589.19Z"/><path fill="#8111F6" d="M326.631 376.181C327.026 376.52 326.957 376.68 327.073 377.31C326.346 377.039 326.533 376.932 326.631 376.181Z"/><path fill="#8111F6" d="M327.131 392.181C327.526 392.52 327.457 392.68 327.573 393.31C326.846 393.039 327.033 392.932 327.131 392.181Z"/></svg>